<?xml version="1.0" encoding="utf-8"?>
<!-- Generator: Adobe Illustrator 15.0.0, SVG Export Plug-In . SVG Version: 6.00 Build 0)  -->
<!DOCTYPE svg PUBLIC "-//W3C//DTD SVG 1.1//EN" "http://www.w3.org/Graphics/SVG/1.1/DTD/svg11.dtd">
<svg version="1.1" id="Layer_1" xmlns="http://www.w3.org/2000/svg" xmlns:xlink="http://www.w3.org/1999/xlink" x="0px" y="0px"
	 width="20px" height="14px" viewBox="0 0 20 14" style="enable-background:new 0 0 20 14;" xml:space="preserve">
<style type="text/css">
<![CDATA[
	.st0{fill:#E82100;}
	.st1{fill:#FFFFFF;}
	.st2{fill:#003AA8;}
]]>
</style>
<g>
	<rect class="st2" width="20" height="14"/>
	<rect x="8" class="st1" width="4" height="14"/>
	<rect y="5" class="st1" width="20" height="4"/>
	<rect x="9" class="st0" width="2" height="14"/>
	<rect y="6" class="st0" width="20" height="2"/>
	<g>
		<polygon class="st1" points="0,1.533 5.022,5.021 8,5 8,4.409 1.409,0 0,0 		"/>
		<polygon class="st0" points="5.716,5 0,1.125 0,0.002 7.456,5 		"/>
	</g>
	<g>
		<polygon class="st1" points="0,12.468 5.021,8.979 8,9 8,9.593 1.409,14 0,14 		"/>
		<polygon class="st0" points="5.716,9 0,12.877 0,14 7.456,9 		"/>
	</g>
	<g>
		<polygon class="st1" points="20,1.533 14.979,5.021 12,5 12,4.409 18.593,0 20,0 		"/>
		<polygon class="st0" points="14.284,5 20,1.125 20,0.002 12.547,5 		"/>
	</g>
	<g>
		<polygon class="st1" points="20,12.468 14.979,8.979 12,9 12,9.593 18.593,14 20,14 		"/>
		<polygon class="st0" points="14.284,9 20,12.877 20,14 12.547,9 		"/>
	</g>
</g>
</svg>
