<?xml version="1.0" encoding="utf-8"?>
<!-- Generator: Adobe Illustrator 19.1.0, SVG Export Plug-In . SVG Version: 6.00 Build 0)  -->
<svg version="1.1"
	 id="Layer_1" sodipodi:docname="visa.svg" inkscape:version="0.91 r13725" xmlns:dc="http://purl.org/dc/elements/1.1/" xmlns:cc="http://creativecommons.org/ns#" xmlns:rdf="http://www.w3.org/1999/02/22-rdf-syntax-ns#" xmlns:svg="http://www.w3.org/2000/svg" xmlns:sodipodi="http://sodipodi.sourceforge.net/DTD/sodipodi-0.dtd" xmlns:inkscape="http://www.inkscape.org/namespaces/inkscape"
	 xmlns="http://www.w3.org/2000/svg" xmlns:xlink="http://www.w3.org/1999/xlink" x="0px" y="0px" viewBox="203 -27.4 506.7 155.4"
	 style="enable-background:new 203 -27.4 506.7 155.4;" xml:space="preserve">
<style type="text/css">
	.st0{fill:#00589F;}
	.st1{fill:#F9A51A;}
</style>
<sodipodi:namedview  fit-margin-bottom="0" fit-margin-right="0" inkscape:current-layer="Layer_1" inkscape:window-maximized="0" inkscape:window-y="0" inkscape:window-x="24" inkscape:window-height="779" inkscape:window-width="1089" inkscape:pageshadow="2" inkscape:pageopacity="0" fit-margin-left="0" fit-margin-top="0" inkscape:cy="-7.06" inkscape:cx="45.038555" inkscape:zoom="1.5657143" showgrid="false" guidetolerance="10" gridtolerance="10" objecttolerance="10" borderopacity="1" pagecolor="#ffffff" bordercolor="#666666" id="namedview18">
	</sodipodi:namedview>
<g id="g5" transform="translate(-16.914,-10.081)">
	<g id="VISA_SVG">
		<polygon id="polygon8" class="st0" points="440.5,132.2 400.9,132.2 425.7,-12.8 465.2,-12.8 		"/>
		<path id="path10" inkscape:connector-curvature="0" class="st0" d="M583.8-9.2c-7.8-2.9-20.1-6.1-35.4-6.1
			c-39.1,0-66.6,19.7-66.8,47.9c-0.2,20.8,19.6,32.5,34.6,39.4c15.4,7.1,20.6,11.6,20.5,18c-0.1,9.7-12.3,14.2-23.7,14.2
			c-15.8,0-24.2-2.2-37.2-7.6l-5.1-2.3l-5.5,32.5c9.2,4,26.3,7.5,44,7.7c41.6,0,68.5-19.4,68.8-49.5c0.1-16.5-10.4-29.1-33.2-39.4
			c-13.8-6.7-22.3-11.2-22.2-18c0-6,7.2-12.5,22.6-12.5c12.9-0.2,22.3,2.6,29.6,5.6l3.5,1.7L583.8-9.2"/>
		<path id="path12" inkscape:connector-curvature="0" class="st0" d="M685.2-12.7h-30.5c-9.5,0-16.5,2.6-20.7,12l-58.8,133h41.5
			c0,0,6.8-17.9,8.3-21.8c4.5,0,44.9,0.1,50.6,0.1c1.2,5.1,4.8,21.7,4.8,21.7h36.7L685.2-12.7 M636.5,80.8
			c3.3-8.4,15.7-40.5,15.7-40.5c-0.2,0.4,3.2-8.4,5.2-13.8l2.7,12.5c0,0,7.6,34.6,9.1,41.9C669.3,80.8,636.5,80.8,636.5,80.8z"/>
		<path id="path14" inkscape:connector-curvature="0" class="st0" d="M367.8-12.7l-38.7,98.9L325,66.1
			c-7.3-23.2-29.7-48.3-54.8-60.8l35.4,126.8h41.8l62.3-144.8H367.8"/>
		<path id="path16" inkscape:connector-curvature="0" class="st1" d="M293.2-12.8h-63.8l-0.5,3c49.6,12,82.4,41,96,75.9L311.1-0.5
			C308.7-9.7,301.8-12.5,293.2-12.8"/>
	</g>
</g>
</svg>
